<svg width="137" height="92" viewBox="0 0 137 92" fill="none" xmlns="http://www.w3.org/2000/svg">
<path d="M66.8981 76.4209L49.1825 49.5875C48.8201 49.0388 48.1963 48.707 47.5265 48.707C46.8567 48.707 46.2329 49.0388 45.8705 49.5875L28.1549 76.4209C27.9638 76.7104 27.8563 77.0447 27.8436 77.3887C27.8309 77.7327 27.9135 78.0736 28.083 78.3758C28.2525 78.6779 28.5024 78.9299 28.8065 79.1055C29.1105 79.2812 29.4575 79.3737 29.8109 79.3737H65.2421C65.9624 79.3737 66.6249 78.9909 66.97 78.3752C67.1395 78.0732 67.2222 77.7323 67.2095 77.3885C67.1968 77.0445 67.0892 76.7102 66.8981 76.4209ZM47.5265 54.1684L52.7792 62.1237H47.5265L43.5897 65.957L41.2485 63.6774L47.5265 54.1684Z" fill="black"/>
<path d="M118.593 74.335L89.6042 28.5605C89.0113 27.6247 87.9908 27.0586 86.8945 27.0586C85.7983 27.0586 84.7778 27.6247 84.1849 28.5605L55.1956 74.335C54.8828 74.829 54.7067 75.3994 54.6862 75.9862C54.6654 76.573 54.8007 77.1548 55.0779 77.6701C55.3552 78.1853 55.7641 78.6154 56.2616 78.9148C56.7591 79.2143 57.3269 79.3723 57.9054 79.3723H115.884C117.062 79.3723 118.146 78.7195 118.711 77.6691C118.988 77.1539 119.124 76.5723 119.103 75.9856C119.082 75.399 118.906 74.8288 118.593 74.335ZM86.8945 36.3749L95.4896 49.9458H86.8945L80.4524 56.4851L76.6215 52.5963L86.8945 36.3749Z" fill="black"/>
<path fill-rule="evenodd" clip-rule="evenodd" d="M40.3684 14.236C40.3684 15.3406 41.2638 16.236 42.3684 16.236H122.684C127.626 16.236 131.632 20.2742 131.632 25.2556V77.5693C131.632 82.5507 127.626 86.5889 122.684 86.5889H26.0526C21.1112 86.5889 17.1052 82.5507 17.1052 77.5693V41.687C17.1052 40.5824 16.2098 39.687 15.1052 39.687H13.7368C12.6322 39.687 11.7368 40.5824 11.7368 41.687V77.5693C11.7368 85.5396 18.1462 92.0007 26.0526 92.0007H122.684C130.591 92.0007 137 85.5396 137 77.5693V25.2556C137 17.2854 130.591 10.8242 122.684 10.8242H42.3684C41.2638 10.8242 40.3684 11.7196 40.3684 12.8242V14.236Z" fill="black"/>
<path d="M27.515 10.6303H17.9906V1.93278C17.9906 0.86552 17.0428 0 15.8741 0H13.7575C12.5888 0 11.641 0.86552 11.641 1.93278V10.6303H2.11655C0.947814 10.6303 0 11.4958 0 12.563V14.4958C0 15.563 0.947814 16.4286 2.11655 16.4286H11.641V25.1261C11.641 26.1933 12.5888 27.0588 13.7575 27.0588H15.8741C17.0428 27.0588 17.9906 26.1933 17.9906 25.1261V16.4286H27.515C28.6837 16.4286 29.6316 15.563 29.6316 14.4958V12.563C29.6316 11.4958 28.6837 10.6303 27.515 10.6303Z" fill="black"/>
</svg>
